<svg width="145" height="40" viewBox="0 0 145 40" fill="none" xmlns="http://www.w3.org/2000/svg">
<path fill-rule="evenodd" clip-rule="evenodd" d="M74.462 7.90144C74.462 9.53473 73.1255 10.8505 71.466 10.8505C69.8052 10.8505 68.4688 9.53473 68.4688 7.90144C68.4688 6.26812 69.7599 4.95239 71.466 4.95239C73.172 4.99776 74.462 6.31348 74.462 7.90144ZM62.1065 13.8446C62.1065 14.1169 62.1065 14.5706 62.1065 14.5706C62.1065 14.5706 60.677 12.7556 57.6333 12.7556C52.6081 12.7556 48.6893 16.5215 48.6893 21.7389C48.6893 26.9111 52.5617 30.7221 57.6333 30.7221C60.7235 30.7221 62.1065 28.862 62.1065 28.862V29.6333C62.1065 29.9962 62.3831 30.2685 62.7515 30.2685H66.4867V13.2093C66.4867 13.2093 63.0746 13.2093 62.7515 13.2093C62.3831 13.2093 62.1065 13.5269 62.1065 13.8446ZM62.106 24.7786C61.4146 25.7767 60.0316 26.6387 58.3709 26.6387C55.4201 26.6387 53.1609 24.824 53.1609 21.7388C53.1609 18.6537 55.4201 16.8389 58.3709 16.8389C59.9851 16.8389 61.4599 17.7462 62.106 18.699V24.7786ZM69.2518 13.2095H73.6785V30.2686H69.2518V13.2095ZM135.371 12.7559C132.327 12.7559 130.898 14.5709 130.898 14.5709V4.9978H126.472V30.2688C126.472 30.2688 129.885 30.2688 130.206 30.2688C130.576 30.2688 130.853 29.9512 130.853 29.6337V28.8623C130.853 28.8623 132.282 30.7224 135.325 30.7224C140.351 30.7224 144.27 26.9114 144.27 21.7392C144.27 16.5671 140.351 12.7559 135.371 12.7559ZM134.634 26.5934C132.928 26.5934 131.591 25.7313 130.899 24.7331V18.6537C131.591 17.7462 133.066 16.7935 134.634 16.7935C137.585 16.7935 139.844 18.6082 139.844 21.6935C139.844 24.7787 137.585 26.5934 134.634 26.5934ZM124.168 20.1509V30.3138H119.741V20.6501C119.741 17.8372 118.82 16.7029 116.33 16.7029C114.993 16.7029 113.61 17.3835 112.734 18.3815V30.2685H108.307V13.2093H111.811C112.18 13.2093 112.457 13.5269 112.457 13.8446V14.5706C113.748 13.2546 115.454 12.7556 117.16 12.7556C119.096 12.7556 120.711 13.3002 122.001 14.3889C123.568 15.6593 124.168 17.2926 124.168 20.1509ZM97.5622 12.7559C94.5197 12.7559 93.0902 14.5709 93.0902 14.5709V4.9978H88.6636V30.2688C88.6636 30.2688 92.0757 30.2688 92.3988 30.2688C92.7672 30.2688 93.0438 29.9512 93.0438 29.6337V28.8623C93.0438 28.8623 94.4732 30.7224 97.5158 30.7224C102.542 30.7224 106.461 26.9114 106.461 21.7392C106.507 16.5671 102.589 12.7559 97.5622 12.7559ZM96.8261 26.5934C95.12 26.5934 93.7835 25.7313 93.092 24.7331V18.6537C93.7835 17.7462 95.2595 16.7935 96.8261 16.7935C99.778 16.7935 102.037 18.6082 102.037 21.6935C102.037 24.7787 99.778 26.5934 96.8261 26.5934ZM84.837 12.7556C86.1747 12.7556 86.8662 12.9826 86.8662 12.9826V17.0205C86.8662 17.0205 83.1775 15.7955 80.8717 18.3815V30.3138H76.4451V13.2093C76.4451 13.2093 79.8572 13.2093 80.1803 13.2093C80.5487 13.2093 80.8253 13.5269 80.8253 13.8446V14.5706C81.6562 13.6178 83.4541 12.7556 84.837 12.7556ZM36.8263 28.0827C36.6252 27.6081 36.4253 27.0938 36.2254 26.6587C35.9047 25.9468 35.5839 25.2744 35.3038 24.6417L35.2632 24.6019C32.4984 18.669 29.5337 12.657 26.4086 6.72401L26.2889 6.48671C25.9682 5.89342 25.6474 5.26056 25.3267 4.62771C24.9269 3.91574 24.5259 3.16424 23.8844 2.45229C22.6026 0.870168 20.7594 0 18.7965 0C16.7929 0 14.9904 0.870168 13.6679 2.37318C13.067 3.08515 12.6266 3.83665 12.2256 4.5486C11.9049 5.18145 11.5841 5.8143 11.2645 6.40759L11.1436 6.64492C8.05927 12.5778 5.05392 18.5899 2.28913 24.5229L2.24962 24.6019C1.96838 25.2348 1.64762 25.9073 1.32802 26.6192C1.12697 27.0543 0.927078 27.5289 0.727186 28.0432C0.205375 29.5066 0.0449966 30.891 0.246051 32.3148C0.68651 35.2814 2.69008 37.7732 5.45486 38.8807C6.49616 39.3158 7.57813 39.5135 8.69962 39.5135C9.02038 39.5135 9.42132 39.474 9.74092 39.4344C11.0635 39.2762 12.4255 38.8411 13.7481 38.0896C15.3913 37.1798 16.9533 35.8745 18.7163 33.9762C20.4793 35.8745 22.0819 37.1798 23.6845 38.0896C25.0071 38.8411 26.3691 39.2762 27.6905 39.4344C28.0113 39.474 28.4122 39.5135 28.733 39.5135C29.8545 39.5135 30.9759 39.3158 31.9777 38.8807C34.7832 37.7732 36.7461 35.2419 37.1865 32.3148C37.5073 30.9305 37.3469 29.5461 36.8263 28.0827ZM18.7927 29.7242C16.7148 27.1138 15.3678 24.6567 14.9065 22.5837C14.7135 21.7008 14.6752 20.9329 14.7902 20.2419C14.8681 19.6277 15.0982 19.0902 15.4062 18.6296C16.1372 17.5931 17.3691 16.9404 18.7927 16.9404C20.2175 16.9404 21.4878 17.5547 22.1804 18.6296C22.4884 19.0902 22.7185 19.6277 22.7964 20.2419C22.9114 20.9329 22.8731 21.7391 22.6802 22.5837C22.2188 24.6183 20.8718 27.0752 18.7927 29.7242ZM34.4136 31.712C34.1394 33.7218 32.768 35.4612 30.8493 36.2341C29.9091 36.6205 28.8899 36.7365 27.8718 36.6205C26.8921 36.5048 25.9136 36.1954 24.8944 35.6157C23.4847 34.8427 22.0738 33.6446 20.4293 31.8666C23.014 28.7358 24.5818 25.8756 25.1686 23.3248C25.4429 22.1266 25.4824 21.0444 25.365 20.0395C25.2082 19.0733 24.856 18.1843 24.3075 17.4113C23.093 15.672 21.0558 14.6671 18.7837 14.6671C16.5117 14.6671 14.4756 15.7107 13.2611 17.4113C12.7126 18.1843 12.3593 19.0733 12.2036 20.0395C12.0467 21.0444 12.085 22.1653 12.3988 23.3248C12.9869 25.8756 14.593 28.7745 17.1393 31.9052C15.5332 33.6832 14.0828 34.8814 12.6731 35.6543C11.655 36.2341 10.6753 36.5434 9.69562 36.6593C8.63805 36.7751 7.61999 36.6205 6.71932 36.2728C4.79943 35.4997 3.42807 33.7606 3.1538 31.7506C3.03643 30.7844 3.11545 29.8182 3.5071 28.7358C3.62448 28.3493 3.81972 27.9629 4.01613 27.4991C4.2904 26.8807 4.60418 26.2236 4.9168 25.5665L4.95632 25.4893C7.65951 19.7304 10.5579 13.8554 13.5738 8.13515L13.6911 7.90324C14.0049 7.32348 14.3187 6.70508 14.6313 6.12532C14.9451 5.50691 15.2972 4.92715 15.7284 4.4247C16.5512 3.49708 17.6483 2.99463 18.8628 2.99463C20.0772 2.99463 21.1731 3.49708 21.9959 4.4247C22.4271 4.92715 22.7792 5.50691 23.093 6.12532C23.4068 6.70508 23.7194 7.32348 24.0332 7.90324L24.1506 8.13515C27.128 13.8941 30.0265 19.769 32.7297 25.5279V25.5665C33.0423 26.185 33.3166 26.8807 33.6303 27.4991C33.8256 27.9629 34.022 28.3493 34.1394 28.7358C34.4532 29.7408 34.5705 30.707 34.4136 31.712Z" fill="black" fill-opacity="0.3"/>
</svg>
