<svg width="28" height="28" viewBox="0 0 28 28" fill="none" xmlns="http://www.w3.org/2000/svg">
<path d="M14 26.6666C14 27.0348 14.2988 27.335 14.6666 27.3169C21.7207 26.9696 27.3334 21.1402 27.3334 14C27.3334 6.63616 21.3638 0.666626 14 0.666626C6.63622 0.666626 0.666687 6.63616 0.666687 14C0.666687 20.1668 4.85321 25.3557 10.5391 26.8797C10.9462 26.9889 11.3334 26.6725 11.3334 26.251V16.6666H10C9.26363 16.6666 8.66669 16.0697 8.66669 15.3333C8.66669 14.5969 9.26365 14 10 14H11.3334V11.3333C11.3334 9.12416 13.1242 7.33329 15.3334 7.33329H16.6667C17.4031 7.33329 18 7.93025 18 8.66663C18 9.40301 17.4031 9.99996 16.6667 9.99996H15.3334C14.597 9.99996 14 10.5969 14 11.3333V14H16.6667C17.4031 14 18 14.5969 18 15.3333C18 16.0697 17.4031 16.6666 16.6667 16.6666H14V26.6666Z" fill="#ffffff"/>
</svg>
