<svg width="99" height="34" viewBox="0 0 99 34" fill="none" xmlns="http://www.w3.org/2000/svg">
<path fill-rule="evenodd" clip-rule="evenodd" d="M12.7966 12.0458V15.4957L21.0361 15.4921C20.7834 17.3948 20.1421 18.788 19.1673 19.763C17.9657 20.9655 16.0904 22.289 12.7966 22.289C7.71971 22.289 3.74731 18.1941 3.74731 13.1128C3.74731 8.03148 7.71971 3.9364 12.7966 3.9364C15.5366 3.9364 17.5366 5.01425 19.0134 6.40004L21.4458 3.96574C19.3875 1.99702 16.6475 0.486572 12.7998 0.486572C5.84767 0.486572 0 6.15441 0 13.1128C0 20.0711 5.84767 25.7388 12.7998 25.7388C16.552 25.7388 19.3843 24.5071 21.5996 22.1974C23.8781 19.917 24.5858 16.7165 24.5858 14.1283C24.5858 13.3583 24.5275 12.6472 24.4141 12.0458H12.7966ZM82.2984 25.2434V1.41357H78.8182V25.2434H82.2984ZM34.1214 25.7424C38.612 25.7424 42.2719 22.2926 42.2719 17.6109C42.2719 12.8962 38.612 9.47949 34.1214 9.47949C29.6292 9.47949 25.9693 12.8962 25.9693 17.6109C25.9693 22.2926 29.6292 25.7424 34.1214 25.7424ZM34.1227 12.6833C36.5842 12.6833 38.7057 14.6851 38.7057 17.6106C38.7057 20.5033 36.5842 22.5379 34.1227 22.5379C31.6612 22.5379 29.5398 20.5069 29.5398 17.6106C29.5398 14.6851 31.6612 12.6833 34.1227 12.6833ZM51.7082 25.7424C56.1988 25.7424 59.8587 22.2926 59.8587 17.6109C59.8587 12.8962 56.1988 9.47949 51.7082 9.47949C47.216 9.47949 43.5561 12.9 43.5561 17.6109C43.5561 22.2926 47.216 25.7424 51.7082 25.7424ZM51.7072 12.6833C54.1688 12.6833 56.2902 14.6851 56.2902 17.6106C56.2902 20.5033 54.1688 22.5379 51.7072 22.5379C49.2457 22.5379 47.1243 20.5069 47.1243 17.6106C47.1243 14.6851 49.2457 12.6833 51.7072 12.6833ZM76.7102 9.97446V24.5692C76.7102 30.5744 73.1702 33.0271 68.9872 33.0271C65.0488 33.0271 62.678 30.3911 61.7841 28.2355L64.8901 26.9413C65.444 28.2648 66.7994 29.8265 68.9824 29.8265C71.6609 29.8265 73.3208 28.1731 73.3208 25.0606V23.8911H73.1961C72.3977 24.8772 70.8593 25.7388 68.9176 25.7388C64.8545 25.7388 61.1315 22.1973 61.1315 17.6403C61.1315 13.0504 64.8545 9.47949 68.9176 9.47949C70.8544 9.47949 72.3945 10.341 73.1961 11.2979H73.3208V9.97446H76.7102ZM73.5747 17.64C73.5747 14.7768 71.6654 12.6833 69.2363 12.6833C66.7748 12.6833 64.7134 14.7768 64.7134 17.64C64.7134 20.474 66.7748 22.5379 69.2363 22.5379C71.6654 22.5379 73.5747 20.474 73.5747 17.64ZM95.8605 20.2874L98.6297 22.1353C97.7358 23.4587 95.582 25.739 91.8589 25.739C87.2436 25.739 83.796 22.1683 83.796 17.6076C83.796 12.772 87.2728 9.47607 91.4607 9.47607C95.6776 9.47607 97.739 12.8343 98.4143 14.6491L98.7836 15.573L87.9206 20.0749C88.7529 21.7063 90.0453 22.5385 91.8589 22.5385C93.676 22.5385 94.9375 21.644 95.8605 20.2874ZM87.3348 17.3612L94.5962 14.344C94.1978 13.3284 92.9961 12.6208 91.5809 12.6208C89.7687 12.6208 87.244 14.223 87.3348 17.3612Z" fill="black" fill-opacity="0.3"/>
</svg>
