<svg width="24" height="24" viewBox="0 0 24 24" fill="none" xmlns="http://www.w3.org/2000/svg">
<path fill-rule="evenodd" clip-rule="evenodd" d="M6.16665 0.333374C2.94499 0.333374 0.333313 2.94505 0.333313 6.16671V17.8334C0.333313 21.055 2.94499 23.6667 6.16665 23.6667H17.8333C21.0549 23.6667 23.6666 21.055 23.6666 17.8334V6.16671C23.6666 2.94505 21.0549 0.333374 17.8333 0.333374H6.16665ZM12 17.8334C15.2216 17.8334 17.8333 15.2217 17.8333 12C17.8333 8.77838 15.2216 6.16671 12 6.16671C8.77832 6.16671 6.16665 8.77838 6.16665 12C6.16665 15.2217 8.77832 17.8334 12 17.8334ZM20.1666 5.00004C20.1666 5.64437 19.6443 6.16671 19 6.16671C18.3556 6.16671 17.8333 5.64437 17.8333 5.00004C17.8333 4.35571 18.3556 3.83337 19 3.83337C19.6443 3.83337 20.1666 4.35571 20.1666 5.00004Z" fill="#ffffff"/>
</svg>
