<svg width="34" height="34" viewBox="0 0 34 34" fill="none" xmlns="http://www.w3.org/2000/svg">
<path fill-rule="evenodd" clip-rule="evenodd" d="M17 34C26.3889 34 34 26.3889 34 17C34 7.61115 26.3889 0 17 0C7.61115 0 0 7.61115 0 17C0 26.3889 7.61115 34 17 34ZM16.9897 19.9355C20.1842 15.6633 20.3252 13.0742 16.9897 8.5C13.5905 13.1718 14.0287 15.6481 16.9897 19.9355ZM15.4726 25.5C15.9803 20.2897 14.7335 17.9808 9.42637 15.5967C8.95269 21.2498 10.6414 23.1872 15.4726 25.5ZM18.5271 25.5C18.0194 20.2897 19.2661 17.9808 24.5733 15.5967C25.047 21.2498 23.3582 23.1872 18.5271 25.5Z" fill="black"/>
</svg>
