<svg width="196" height="27" viewBox="0 0 196 27" fill="none" xmlns="http://www.w3.org/2000/svg">
<path fill-rule="evenodd" clip-rule="evenodd" d="M28.9763 26.0798V14.8579C28.9763 10.6234 26.2929 7.77312 21.972 7.7357C19.4664 7.57265 17.07 8.79361 15.7184 10.9227C14.4865 8.85637 12.2296 7.63354 9.83669 7.7357C7.75525 7.63459 5.77609 8.64741 4.63136 10.399V8.15466H0.756714V26.0798H4.66855V16.1522C4.66855 13.0399 6.37809 11.3941 9.0255 11.3941C11.6729 11.3941 12.9001 13.0773 12.9001 16.1148V26.0798H16.7887V16.1522C16.7887 13.0399 18.5738 11.3941 21.1468 11.3941C23.7199 11.3941 25.0575 13.0773 25.0575 16.1148V26.0798H28.9763ZM86.8499 8.17047H80.5278V2.73901H76.6113V8.17047H72.9969V11.7316H76.6113V19.8937C76.6113 24.0533 78.2151 26.5295 82.794 26.5295C84.5024 26.5351 86.1759 26.0555 87.6286 25.1455L86.5129 21.8088C85.4786 22.4317 84.3048 22.7792 83.0845 22.8188C81.1553 22.8188 80.5161 21.6218 80.5161 19.8263V11.7316H86.8499V8.17047ZM119.89 7.72124C117.972 7.66488 116.171 8.67259 115.195 10.3473V8.17018H111.36V26.0804H115.241V16.0405C115.241 13.048 116.496 11.432 119.042 11.432C119.867 11.4199 120.692 11.5724 121.459 11.8809L122.644 8.20761C121.761 7.88894 120.831 7.72449 119.89 7.72124ZM69.9411 9.59126C67.7504 8.28011 65.2285 7.63092 62.6787 7.72087C58.1719 7.72087 55.2421 9.89795 55.2421 13.4516C55.2421 16.3768 57.399 18.1723 61.3841 18.7334L63.2063 18.9952C65.325 19.2945 66.3372 19.8556 66.3372 20.8655C66.3372 22.2495 64.924 23.0426 62.2766 23.0426C60.1406 23.1108 58.0452 22.4519 56.3275 21.1723L54.5657 24.2022C56.8214 25.7892 59.5246 26.6048 62.2766 26.5288C67.4145 26.5288 70.3943 24.0899 70.3943 20.686C70.3943 17.5364 68.0468 15.8905 64.1802 15.3294L62.358 15.0675C60.6856 14.8431 59.3398 14.5064 59.3398 13.3095C59.3398 12.0002 60.6031 11.2147 62.7299 11.2147C64.6788 11.2436 66.5882 11.7715 68.2792 12.7484L69.9411 9.59126ZM173.687 7.72124C171.77 7.66488 169.968 8.67259 169.004 10.3473V8.17018H165.169V26.0804H169.039V16.0405C169.039 13.048 170.305 11.432 172.839 11.432C173.664 11.4199 174.489 11.5724 175.256 11.8809L176.453 8.20761C175.57 7.88894 174.629 7.72449 173.687 7.72124ZM123.807 17.1254C123.807 22.5569 127.561 26.5294 133.302 26.5294C135.627 26.6451 137.905 25.8819 139.706 24.3897L137.846 21.2402C136.498 22.2662 134.871 22.8303 133.186 22.8486C130.095 22.8486 127.829 20.5594 127.829 17.118C127.829 13.6766 130.106 11.4247 133.186 11.3872C134.871 11.4056 136.498 11.9697 137.846 12.9958L139.706 9.84608C137.905 8.35398 135.627 7.59079 133.302 7.70654C127.561 7.70654 123.807 11.679 123.807 17.1105V17.1254ZM160.078 17.1253V8.14787H156.208V10.3248C154.86 8.58485 152.768 7.60607 150.583 7.69893C145.586 7.69893 141.657 11.6341 141.657 17.1029C141.657 22.5718 145.574 26.5069 150.583 26.5069C152.768 26.5998 154.86 25.621 156.208 23.881V26.0505H160.078V17.1253ZM145.666 17.1252C145.666 13.9756 147.711 11.3945 151.058 11.3945C154.266 11.3945 156.428 13.8709 156.428 17.1252C156.428 20.3796 154.266 22.8559 151.058 22.8559C147.711 22.8559 145.666 20.2673 145.666 17.1252ZM98.9244 7.72082C93.7179 7.72082 90.0571 11.5437 90.0571 17.1248C90.0571 22.8181 93.8574 26.5288 99.1801 26.5288C101.841 26.6226 104.445 25.7276 106.478 24.0151L104.584 21.1273C103.108 22.3178 101.272 22.9762 99.3777 22.9977C96.879 22.9977 94.6128 21.8381 94.055 18.6136H107.28C107.315 18.1273 107.35 17.641 107.35 17.1174C107.35 11.5363 103.887 7.71338 98.9012 7.71338L98.9244 7.72082ZM98.843 11.2078C101.342 11.2078 102.945 12.7788 103.352 15.5544H94.1246C94.5314 12.9658 96.1003 11.2078 98.8546 11.2078H98.843ZM196 17.125V0.9729H192.13V10.3395C190.782 8.59947 188.69 7.6207 186.505 7.71356C181.52 7.71356 177.58 11.6488 177.58 17.1175C177.58 22.5863 181.497 26.5215 186.505 26.5215C188.69 26.6144 190.782 25.6356 192.13 23.8956V26.0651H196V17.125ZM181.6 17.1252C181.6 13.9756 183.646 11.3945 187.004 11.3945C190.212 11.3945 192.362 13.8709 192.362 17.1252C192.362 20.3796 190.212 22.8559 187.004 22.8559C183.646 22.8559 181.6 20.2673 181.6 17.1252ZM50.8022 17.1254V8.14794H46.9287V10.3249C45.5876 8.59991 43.5026 7.63066 41.3282 7.72143C36.3391 7.72143 32.4052 11.6566 32.4052 17.1254C32.4052 22.5943 36.317 26.5294 41.3282 26.5294C43.5154 26.6223 45.6096 25.6435 46.9508 23.9035V26.0731H50.8243L50.8022 17.1254ZM36.3911 17.1252C36.3911 13.9756 38.4354 11.3945 41.7894 11.3945C44.9946 11.3945 47.1504 13.8709 47.1504 17.1252C47.1504 20.3796 44.9946 22.8559 41.7894 22.8559C38.4354 22.8559 36.3911 20.2748 36.3911 17.1252Z" fill="black" fill-opacity="0.3"/>
</svg>
