<svg width="86" height="32" viewBox="0 0 86 32" fill="none" xmlns="http://www.w3.org/2000/svg">
<path fill-rule="evenodd" clip-rule="evenodd" d="M10.1969 31.8522C7.66919 31.748 5.60054 31.0301 3.98398 29.6968C3.676 29.4422 2.93919 28.6785 2.69281 28.3565C2.03735 27.5007 1.58992 26.6679 1.29357 25.7438C0.377787 22.8996 0.849625 19.1671 2.64168 15.0709C4.17457 11.564 6.54073 8.08573 10.6699 3.2685C11.2765 2.55964 13.0872 0.486572 13.1011 0.486572C13.1035 0.486572 13.0058 0.664011 12.8815 0.880069C11.8088 2.74606 10.8895 4.94401 10.3887 6.84683C9.58444 9.90009 9.68206 12.5203 10.6734 14.552C11.3567 15.9518 12.5282 17.1642 13.8461 17.8343C16.153 19.0073 19.5302 19.1042 23.6536 18.1182C23.9371 18.05 38.0074 14.1738 54.9204 9.50425C71.8345 4.83441 85.6747 1.01663 85.6758 1.01977C85.6805 1.02382 46.3831 18.4753 25.9814 27.529C22.7506 28.9625 21.8882 29.3245 20.3693 29.8779C16.4865 31.2928 13.0082 31.9682 10.1969 31.8522Z" fill="black" fill-opacity="0.3"/>
</svg>
