<svg width="84" height="37" viewBox="0 0 84 37" fill="none" xmlns="http://www.w3.org/2000/svg">
<path fill-rule="evenodd" clip-rule="evenodd" d="M6.63005 14.4414C6.63005 13.5035 7.37383 13.1428 8.58713 13.1428C10.335 13.1428 12.5187 13.696 14.2666 14.6821V9.0301C12.3735 8.2365 10.4803 7.92383 8.58713 7.92383C3.92802 7.92383 0.83783 10.4733 0.83783 14.7303C0.83783 21.3679 9.54242 20.3098 9.54242 23.1719C9.54242 24.2779 8.63594 24.6388 7.34129 24.6388C5.44929 24.6388 3.02153 23.821 1.09699 22.7148V28.4387C3.21561 29.4007 5.36794 29.8095 7.34129 29.8095C12.1143 29.8095 15.3986 27.3325 15.3986 23.0274C15.3672 15.8605 6.63005 17.135 6.63005 14.4414ZM22.1301 3.11401L16.532 4.36455L16.5157 23.6288C16.5157 27.1884 19.0562 29.8096 22.4532 29.8096C24.3301 29.8096 25.7049 29.4489 26.4661 29.0161V24.1337C25.7374 24.4466 22.1138 25.5527 22.1138 21.9933V13.4555H26.4661V8.33288H22.1138L22.1301 3.11401ZM33.5844 10.1127L33.2288 8.33312H28.278V29.3769H34.0051V15.1152C35.3486 13.2635 37.6462 13.6002 38.3574 13.8646V8.33312C37.6299 8.04446 34.9442 7.51533 33.5844 10.1127ZM39.7476 8.33301H45.5072V29.3768H39.7476V8.33301ZM39.7476 6.5051L45.5072 5.20639V0.324219L39.7476 1.59892V6.50493V6.5051ZM57.4809 7.92383C55.2321 7.92383 53.7759 9.0301 52.9833 9.79981L52.6765 8.30871H47.6443V36.351L53.3715 35.0765L53.3878 28.2703C54.2129 28.8955 55.4262 29.7854 57.4495 29.7854C61.5589 29.7854 65.2964 26.3223 65.2964 18.6985C65.2639 11.7238 61.4938 7.92383 57.4809 7.92383ZM56.1058 24.495C54.7472 24.495 53.9384 23.9901 53.3875 23.3647L53.3712 14.442C53.9697 13.7447 54.7949 13.2637 56.1058 13.2637C58.1768 13.2637 59.6329 15.7166 59.6329 18.8673C59.6329 22.0901 58.2093 24.495 56.1058 24.495ZM83.3523 18.9388C83.3523 12.782 80.505 7.92383 75.0847 7.92383C69.6167 7.92383 66.3162 12.7822 66.3162 18.8908C66.3162 26.1298 70.2152 29.7854 75.8133 29.7854C78.5305 29.7854 80.6015 29.1361 82.1553 28.2222V23.4121C80.6015 24.2299 78.8059 24.7351 76.5409 24.7351C74.3246 24.7351 72.3501 23.9173 72.0921 21.0793H83.3035C83.3035 20.7666 83.3523 19.516 83.3523 18.9388ZM72.0271 16.6542C72.0271 13.9366 73.6123 12.8062 75.0522 12.8062C76.4596 12.8062 77.9483 13.9366 77.9483 16.6542H72.0271Z" fill="black" fill-opacity="0.3"/>
</svg>
