<svg width="24" height="22" viewBox="0 0 24 22" fill="none" xmlns="http://www.w3.org/2000/svg">
<path d="M22.2857 5.85721C22.8572 14.4286 16.5714 21.2858 8.57144 21.2858C5.81497 21.2858 3.0585 20.9164 0.89594 19.8808C0.400649 19.6436 0.594248 18.9829 1.14219 18.9466C3.80514 18.77 6.00881 18.1341 7.42858 16.7144C1.23841 14.6509 0.170637 6.9995 1.28263 3.00829C1.41319 2.53965 2.02248 2.5372 2.26807 2.95717C4.1669 6.20431 7.77738 8.01725 12.3024 7.59888C12.1066 7.05497 12 6.46855 12 5.85721C12 3.01689 14.3025 0.714355 17.1429 0.714355C18.878 0.714355 20.4124 1.57358 21.3438 2.88974L23.3062 2.60938C23.7952 2.53953 24.1365 3.08106 23.8625 3.49204L22.2857 5.85721Z" fill="#ffffff"/>
</svg>
