<svg width="113" height="24" viewBox="0 0 113 24" fill="none" xmlns="http://www.w3.org/2000/svg">
<path fill-rule="evenodd" clip-rule="evenodd" d="M80.943 3.45756C80.8268 3.71354 80.6629 3.82952 80.3143 3.82952H67.319V9.52214H78.1666C78.3537 9.52214 78.4235 9.61477 78.3537 9.80083L77.1637 12.7287C77.0463 12.9843 76.8848 13.0999 76.5338 13.0999H70.1628C68.0884 13.0999 67.319 13.7273 67.319 15.1216V19.1412H81.9936C82.1796 19.1412 82.2493 19.2342 82.1796 19.42L80.943 22.4643C80.8268 22.7194 80.6629 22.8358 80.3143 22.8358H64.2846C63.0481 22.8358 62.582 22.4176 62.582 21.488V1.71495C62.582 0.62299 63.1887 0.13501 64.7983 0.13501H81.9936C82.1796 0.13501 82.2493 0.228285 82.1796 0.413685L80.943 3.45756ZM18.4202 13.4257V0.692999C18.4202 0.321421 18.6085 0.135254 18.9815 0.135254H23.2502V13.6347C23.2502 20.7452 18.7015 23.2313 12.0981 23.2313C5.49582 23.2313 0.945953 20.7452 0.945953 13.6347V0.692999C0.945953 0.321421 1.1319 0.135254 1.50612 0.135254H5.7759V13.4257C5.7759 17.6777 7.66558 19.4433 12.0981 19.4433C16.5317 19.4433 18.4202 17.6777 18.4202 13.4257ZM45.5674 19.1879H37.1417V15.0287C37.1417 13.6344 37.9122 13.0073 39.9902 13.0073H45.5674C48.2496 13.0073 48.9969 14.0294 48.9969 16.121C48.9969 18.2121 48.2496 19.1879 45.5674 19.1879ZM37.1417 3.78271H44.6806C47.2014 3.78271 47.901 4.7279 47.901 6.68696C47.901 8.64648 47.2014 9.59178 44.6806 9.59178H37.1417V3.78271ZM50.0471 10.8697C51.9123 9.8938 52.6817 8.05828 52.6817 5.89747C52.6817 0.878526 48.5769 0.13501 44.3304 0.13501H34.624C33.0144 0.13501 32.4089 0.62299 32.4089 1.71495V21.488C32.4089 22.4176 32.8738 22.8358 34.1115 22.8358H46.0574C50.5596 22.8358 53.7799 21.0932 53.7799 16.5623C53.7799 13.8439 52.6131 11.5434 50.0471 10.8697ZM95.1423 10.6603H103.074C106.038 10.6603 106.692 9.5452 106.692 7.22181C106.692 4.92142 106.038 3.7832 103.074 3.7832H95.1423V10.6603ZM106.879 13.7043L111.988 22.4407C112.082 22.5798 112.082 22.8358 111.779 22.8358H107.44C107.09 22.8358 106.949 22.6963 106.809 22.4643L102.19 14.1922H97.99C95.9132 14.1922 95.1439 14.8197 95.1439 16.214V22.8358H90.9682C90.594 22.8358 90.4081 22.6497 90.4081 22.2782V1.71495C90.4081 0.62299 91.0136 0.13501 92.6243 0.13501H102.377C108.046 0.13501 111.475 1.62244 111.475 7.1289C111.475 11.3811 109.423 13.054 106.879 13.7043Z" fill="black" fill-opacity="0.3"/>
</svg>
